<svg width="129" height="444" viewBox="0 0 129 444" fill="none" xmlns="http://www.w3.org/2000/svg">
<g id="Mask Group">
<mask id="mask0_1:719" style="mask-type:alpha" maskUnits="userSpaceOnUse" x="50" y="39" width="266" height="365">
<ellipse id="Ellipse 160" cx="183.362" cy="221.723" rx="119.806" ry="190.428" transform="rotate(-22.4132 183.362 221.723)" fill="#4953BE"/>
</mask>
<g mask="url(#mask0_1:719)">
<g id="lines">
<rect id="Rectangle 1030" width="248.064" height="3.70311" transform="matrix(0.798849 -0.601532 0.485994 0.873962 93.8321 293.893)" fill="#FF6D69"/>
<rect id="Rectangle 1035" width="248.064" height="3.70311" transform="matrix(0.798849 -0.601532 0.485994 0.873962 87.743 282.943)" fill="#FF6D69"/>
<rect id="Rectangle 1036" width="248.064" height="3.70311" transform="matrix(0.798849 -0.601532 0.485994 0.873962 81.6541 271.993)" fill="#FF6D69"/>
<rect id="Rectangle 1031" width="248.064" height="3.70311" transform="matrix(0.798849 -0.601532 0.485994 0.873962 99.9211 304.843)" fill="#FF6D69"/>
<rect id="Rectangle 1032" width="248.064" height="3.70311" transform="matrix(0.798849 -0.601532 0.485994 0.873962 106.01 315.792)" fill="#FF6D69"/>
<rect id="Rectangle 1033" width="248.064" height="3.70311" transform="matrix(0.798849 -0.601532 0.485994 0.873962 112.099 326.742)" fill="#FF6D69"/>
<rect id="Rectangle 1034" width="248.064" height="3.70311" transform="matrix(0.798849 -0.601532 0.485994 0.873962 118.188 337.692)" fill="#FF6D69"/>
<rect id="Rectangle 1038" width="248.064" height="3.70311" transform="matrix(0.798849 -0.601532 0.485994 0.873962 125.231 364.226)" fill="#FF6D69"/>
<rect id="Rectangle 1039" width="248.064" height="3.70311" transform="matrix(0.798849 -0.601532 0.485994 0.873962 119.142 353.276)" fill="#FF6D69"/>
</g>
<g id="lines_2">
<rect id="Rectangle 1030_2" width="248.064" height="3.70311" transform="matrix(0.798849 -0.601532 0.485994 0.873962 57.9542 242.638)" fill="#FF6D69"/>
<rect id="Rectangle 1035_2" width="248.064" height="3.70311" transform="matrix(0.798849 -0.601532 0.485994 0.873962 51.8651 231.689)" fill="#FF6D69"/>
<rect id="Rectangle 1036_2" width="248.064" height="3.70311" transform="matrix(0.798849 -0.601532 0.485994 0.873962 45.7762 220.739)" fill="#FF6D69"/>
<rect id="Rectangle 1031_2" width="248.064" height="3.70311" transform="matrix(0.798849 -0.601532 0.485994 0.873962 64.0432 253.588)" fill="#FF6D69"/>
<rect id="Rectangle 1032_2" width="248.064" height="3.70311" transform="matrix(0.798849 -0.601532 0.485994 0.873962 70.1321 264.538)" fill="#FF6D69"/>
<rect id="Rectangle 1033_2" width="248.064" height="3.70311" transform="matrix(0.798849 -0.601532 0.485994 0.873962 76.2213 275.488)" fill="#FF6D69"/>
<rect id="Rectangle 1034_2" width="248.064" height="3.70311" transform="matrix(0.798849 -0.601532 0.485994 0.873962 82.3102 286.438)" fill="#FF6D69"/>
<rect id="Rectangle 1037" width="248.064" height="3.70311" transform="matrix(0.798849 -0.601532 0.485994 0.873962 95.4421 323.922)" fill="#FF6D69"/>
<rect id="Rectangle 1038_2" width="248.064" height="3.70311" transform="matrix(0.798849 -0.601532 0.485994 0.873962 89.353 312.972)" fill="#FF6D69"/>
<rect id="Rectangle 1039_2" width="248.064" height="3.70311" transform="matrix(0.798849 -0.601532 0.485994 0.873962 83.264 302.022)" fill="#FF6D69"/>
<rect id="Rectangle 1040" width="248.064" height="3.70311" transform="matrix(0.798849 -0.601532 0.485994 0.873962 101.531 334.872)" fill="#FF6D69"/>
<rect id="Rectangle 1041" width="248.064" height="3.70311" transform="matrix(0.798849 -0.601532 0.485994 0.873962 107.62 345.821)" fill="#FF6D69"/>
<rect id="Rectangle 1042" width="248.064" height="3.70311" transform="matrix(0.798849 -0.601532 0.485994 0.873962 113.709 356.771)" fill="#FF6D69"/>
<rect id="Rectangle 1043" width="248.064" height="3.70311" transform="matrix(0.798849 -0.601532 0.485994 0.873962 119.798 367.721)" fill="#FF6D69"/>
</g>
<g id="lines_3">
<rect id="Rectangle 1030_3" width="248.064" height="3.70311" transform="matrix(0.798849 -0.601532 0.485994 0.873962 -43.2728 100.408)" fill="#FF6D69"/>
<rect id="Rectangle 1035_3" width="248.064" height="3.70311" transform="matrix(0.798849 -0.601532 0.485994 0.873962 -49.3619 89.4584)" fill="#FF6D69"/>
<rect id="Rectangle 1036_3" width="248.064" height="3.70311" transform="matrix(0.798849 -0.601532 0.485994 0.873962 -55.4508 78.5085)" fill="#FF6D69"/>
<rect id="Rectangle 1031_3" width="248.064" height="3.70311" transform="matrix(0.798849 -0.601532 0.485994 0.873962 -37.1838 111.358)" fill="#FF6D69"/>
<rect id="Rectangle 1032_3" width="248.064" height="3.70311" transform="matrix(0.798849 -0.601532 0.485994 0.873962 -31.0948 122.308)" fill="#FF6D69"/>
<rect id="Rectangle 1033_3" width="248.064" height="3.70311" transform="matrix(0.798849 -0.601532 0.485994 0.873962 -25.0057 133.258)" fill="#FF6D69"/>
<rect id="Rectangle 1034_3" width="248.064" height="3.70311" transform="matrix(0.798849 -0.601532 0.485994 0.873962 -18.9167 144.208)" fill="#FF6D69"/>
<rect id="Rectangle 1037_2" width="248.064" height="3.70311" transform="matrix(0.798849 -0.601532 0.485994 0.873962 -5.78485 181.691)" fill="#FF6D69"/>
<rect id="Rectangle 1038_3" width="248.064" height="3.70311" transform="matrix(0.798849 -0.601532 0.485994 0.873962 -11.874 170.742)" fill="#FF6D69"/>
<rect id="Rectangle 1039_3" width="248.064" height="3.70311" transform="matrix(0.798849 -0.601532 0.485994 0.873962 -17.963 159.792)" fill="#FF6D69"/>
<rect id="Rectangle 1040_2" width="248.064" height="3.70311" transform="matrix(0.798849 -0.601532 0.485994 0.873962 0.304077 192.641)" fill="#FF6D69"/>
<rect id="Rectangle 1041_2" width="248.064" height="3.70311" transform="matrix(0.798849 -0.601532 0.485994 0.873962 6.39301 203.591)" fill="#FF6D69"/>
<rect id="Rectangle 1042_2" width="248.064" height="3.70311" transform="matrix(0.798849 -0.601532 0.485994 0.873962 12.4822 214.541)" fill="#FF6D69"/>
<rect id="Rectangle 1043_2" width="248.064" height="3.70311" transform="matrix(0.798849 -0.601532 0.485994 0.873962 18.5711 225.491)" fill="#FF6D69"/>
</g>
</g>
</g>
</svg>
